# xmcd
#
# Track frame offsets:
#	182
#	16545
#	34375
#	48637
#	64282
#	81045
#	99200
#	117522
#	133955
#	146940
#
# Disc length: 2195 seconds
#
# Revision: 5
# Processed by: cddbd v1.5.1PL2 Copyright (c) Steve Scherf et al.
# Submitted via: dBpowerAMP V4.0
#
DISCID=8e08910a
DTITLE=Sawyer Brown - This Thing Called Wantin' and Havin' It All
DYEAR=1995
DGENRE=Country
TTITLE0=Nothin' Less Than Love
TTITLE1=Big Picture
TTITLE2=I Will Leave The Light On
TTITLE3=(This Thing Called) Wantin' And Havin' It All
TTITLE4=Another Mile
TTITLE5='round Here
TTITLE6=She's Gettin' There
TTITLE7=Treat Her Right
TTITLE8=Like A John Deere
TTITLE9=Small Town Hero
EXTD=
EXTT0=
EXTT1=
EXTT2=
EXTT3=
EXTT4=
EXTT5=
EXTT6=
EXTT7=
EXTT8=
EXTT9=
PLAYORDER=
